<svg width="160" height="40" viewBox="0 0 160 40" fill="none" xmlns="http://www.w3.org/2000/svg">
<rect width="160" height="40" fill="white"/>
<path d="M21.0568 27V18.2727H24.108C24.7159 18.2727 25.2173 18.3778 25.6122 18.5881C26.0071 18.7955 26.3011 19.0753 26.4943 19.4276C26.6875 19.777 26.7841 20.1648 26.7841 20.5909C26.7841 20.9659 26.7173 21.2756 26.5838 21.5199C26.4531 21.7642 26.2798 21.9574 26.0639 22.0994C25.8509 22.2415 25.6193 22.3466 25.3693 22.4148V22.5C25.6364 22.517 25.9048 22.6108 26.1747 22.7812C26.4446 22.9517 26.6705 23.196 26.8523 23.5142C27.0341 23.8324 27.125 24.2216 27.125 24.6818C27.125 25.1193 27.0256 25.5128 26.8267 25.8622C26.6278 26.2116 26.3139 26.4886 25.8849 26.6932C25.456 26.8977 24.8977 27 24.2102 27H21.0568ZM22.1136 26.0625H24.2102C24.9006 26.0625 25.3906 25.929 25.6804 25.6619C25.973 25.392 26.1193 25.0653 26.1193 24.6818C26.1193 24.3864 26.044 24.1136 25.8935 23.8636C25.7429 23.6108 25.5284 23.4091 25.25 23.2585C24.9716 23.1051 24.642 23.0284 24.2614 23.0284H22.1136V26.0625ZM22.1136 22.108H24.0739C24.392 22.108 24.679 22.0455 24.9347 21.9205C25.1932 21.7955 25.3977 21.6193 25.5483 21.392C25.7017 21.1648 25.7784 20.8977 25.7784 20.5909C25.7784 20.2074 25.6449 19.8821 25.3778 19.6151C25.1108 19.3452 24.6875 19.2102 24.108 19.2102H22.1136V22.108ZM28.7251 27V20.4545H29.6967V21.4432H29.7649C29.8842 21.1193 30.1001 20.8565 30.4126 20.6548C30.7251 20.4531 31.0774 20.3523 31.4695 20.3523C31.5433 20.3523 31.6357 20.3537 31.7464 20.3565C31.8572 20.3594 31.9411 20.3636 31.9979 20.3693V21.392C31.9638 21.3835 31.8857 21.3707 31.7635 21.3537C31.6442 21.3338 31.5178 21.3239 31.3842 21.3239C31.0661 21.3239 30.782 21.3906 30.532 21.5241C30.2848 21.6548 30.0888 21.8366 29.9439 22.0696C29.8018 22.2997 29.7308 22.5625 29.7308 22.858V27H28.7251ZM35.6499 27.1364C35.0589 27.1364 34.5405 26.9957 34.0945 26.7145C33.6513 26.4332 33.3047 26.0398 33.0547 25.5341C32.8075 25.0284 32.6839 24.4375 32.6839 23.7614C32.6839 23.0795 32.8075 22.4844 33.0547 21.9759C33.3047 21.4673 33.6513 21.0724 34.0945 20.7912C34.5405 20.5099 35.0589 20.3693 35.6499 20.3693C36.2408 20.3693 36.7578 20.5099 37.201 20.7912C37.647 21.0724 37.9936 21.4673 38.2408 21.9759C38.4908 22.4844 38.6158 23.0795 38.6158 23.7614C38.6158 24.4375 38.4908 25.0284 38.2408 25.5341C37.9936 26.0398 37.647 26.4332 37.201 26.7145C36.7578 26.9957 36.2408 27.1364 35.6499 27.1364ZM35.6499 26.233C36.0987 26.233 36.468 26.1179 36.7578 25.8878C37.0476 25.6577 37.2621 25.3551 37.4013 24.9801C37.5405 24.6051 37.6101 24.1989 37.6101 23.7614C37.6101 23.3239 37.5405 22.9162 37.4013 22.5384C37.2621 22.1605 37.0476 21.8551 36.7578 21.6222C36.468 21.3892 36.0987 21.2727 35.6499 21.2727C35.201 21.2727 34.8317 21.3892 34.5419 21.6222C34.2521 21.8551 34.0376 22.1605 33.8984 22.5384C33.7592 22.9162 33.6896 23.3239 33.6896 23.7614C33.6896 24.1989 33.7592 24.6051 33.8984 24.9801C34.0376 25.3551 34.2521 25.6577 34.5419 25.8878C34.8317 26.1179 35.201 26.233 35.6499 26.233ZM42.81 27.1364C42.2191 27.1364 41.7006 26.9957 41.2546 26.7145C40.8114 26.4332 40.4648 26.0398 40.2148 25.5341C39.9677 25.0284 39.8441 24.4375 39.8441 23.7614C39.8441 23.0795 39.9677 22.4844 40.2148 21.9759C40.4648 21.4673 40.8114 21.0724 41.2546 20.7912C41.7006 20.5099 42.2191 20.3693 42.81 20.3693C43.4009 20.3693 43.918 20.5099 44.3612 20.7912C44.8072 21.0724 45.1538 21.4673 45.4009 21.9759C45.6509 22.4844 45.7759 23.0795 45.7759 23.7614C45.7759 24.4375 45.6509 25.0284 45.4009 25.5341C45.1538 26.0398 44.8072 26.4332 44.3612 26.7145C43.918 26.9957 43.4009 27.1364 42.81 27.1364ZM42.81 26.233C43.2589 26.233 43.6282 26.1179 43.918 25.8878C44.2077 25.6577 44.4222 25.3551 44.5614 24.9801C44.7006 24.6051 44.7702 24.1989 44.7702 23.7614C44.7702 23.3239 44.7006 22.9162 44.5614 22.5384C44.4222 22.1605 44.2077 21.8551 43.918 21.6222C43.6282 21.3892 43.2589 21.2727 42.81 21.2727C42.3612 21.2727 41.9918 21.3892 41.7021 21.6222C41.4123 21.8551 41.1978 22.1605 41.0586 22.5384C40.9194 22.9162 40.8498 23.3239 40.8498 23.7614C40.8498 24.1989 40.9194 24.6051 41.0586 24.9801C41.1978 25.3551 41.4123 25.6577 41.7021 25.8878C41.9918 26.1179 42.3612 26.233 42.81 26.233ZM48.2486 24.6136L48.2315 23.3693H48.4361L51.2997 20.4545H52.544L49.4929 23.5398H49.4077L48.2486 24.6136ZM47.3111 27V18.2727H48.3168V27H47.3111ZM51.4702 27L48.9134 23.7614L49.6293 23.0625L52.7486 27H51.4702ZM56.3132 27.1364C55.6825 27.1364 55.1385 26.9972 54.6811 26.7188C54.2266 26.4375 53.8757 26.0455 53.6286 25.5426C53.3842 25.0369 53.2621 24.4489 53.2621 23.7784C53.2621 23.108 53.3842 22.517 53.6286 22.0057C53.8757 21.4915 54.2195 21.0909 54.6598 20.804C55.103 20.5142 55.62 20.3693 56.2109 20.3693C56.5518 20.3693 56.8885 20.4261 57.2209 20.5398C57.5533 20.6534 57.8558 20.8381 58.1286 21.0938C58.4013 21.3466 58.6186 21.6818 58.7805 22.0994C58.9425 22.517 59.0234 23.0312 59.0234 23.642V24.0682H53.978V23.1989H58.0007C58.0007 22.8295 57.9268 22.5 57.7791 22.2102C57.6342 21.9205 57.4268 21.6918 57.157 21.5241C56.8899 21.3565 56.5746 21.2727 56.2109 21.2727C55.8104 21.2727 55.4638 21.3722 55.1712 21.571C54.8814 21.767 54.6584 22.0227 54.5021 22.3381C54.3459 22.6534 54.2678 22.9915 54.2678 23.3523V23.9318C54.2678 24.4261 54.353 24.8452 54.5234 25.1889C54.6967 25.5298 54.9368 25.7898 55.2436 25.9688C55.5504 26.1449 55.907 26.233 56.3132 26.233C56.5774 26.233 56.8161 26.196 57.0291 26.1222C57.245 26.0455 57.4311 25.9318 57.5874 25.7812C57.7436 25.6278 57.8643 25.4375 57.9496 25.2102L58.9212 25.483C58.8189 25.8125 58.647 26.1023 58.4055 26.3523C58.1641 26.5994 57.8658 26.7926 57.5107 26.9318C57.1555 27.0682 56.7564 27.1364 56.3132 27.1364ZM65.6499 27L63.2635 18.2727H64.3374L66.1612 25.3807H66.2464L68.1044 18.2727H69.2976L71.1555 25.3807H71.2408L73.0646 18.2727H74.1385L71.7521 27H70.6612L68.7351 20.0455H68.6669L66.7408 27H65.6499ZM76.6357 27.1534C76.2209 27.1534 75.8445 27.0753 75.5064 26.919C75.1683 26.7599 74.8999 26.5312 74.701 26.233C74.5021 25.9318 74.4027 25.5682 74.4027 25.142C74.4027 24.767 74.4766 24.4631 74.6243 24.2301C74.772 23.9943 74.9695 23.8097 75.2166 23.6761C75.4638 23.5426 75.7365 23.4432 76.0348 23.3778C76.3359 23.3097 76.6385 23.2557 76.9425 23.2159C77.3402 23.1648 77.6626 23.1264 77.9098 23.1009C78.1598 23.0724 78.3416 23.0256 78.4553 22.9602C78.5717 22.8949 78.63 22.7812 78.63 22.6193V22.5852C78.63 22.1648 78.5149 21.8381 78.2848 21.6051C78.0575 21.3722 77.7124 21.2557 77.2493 21.2557C76.7692 21.2557 76.3928 21.3608 76.12 21.571C75.8473 21.7812 75.6555 22.0057 75.5447 22.2443L74.5902 21.9034C74.7607 21.5057 74.9879 21.196 75.272 20.9744C75.5589 20.75 75.8714 20.5937 76.2095 20.5057C76.5504 20.4148 76.8857 20.3693 77.2152 20.3693C77.4254 20.3693 77.6669 20.3949 77.9396 20.446C78.2152 20.4943 78.4808 20.5952 78.7365 20.7486C78.995 20.902 79.2095 21.1335 79.38 21.4432C79.5504 21.7528 79.6357 22.1676 79.6357 22.6875V27H78.63V26.1136H78.5788C78.5107 26.2557 78.397 26.4077 78.2379 26.5696C78.0788 26.7315 77.8672 26.8693 77.603 26.983C77.3388 27.0966 77.0163 27.1534 76.6357 27.1534ZM76.7891 26.25C77.1868 26.25 77.522 26.1719 77.7947 26.0156C78.0703 25.8594 78.2777 25.6577 78.4169 25.4105C78.5589 25.1634 78.63 24.9034 78.63 24.6307V23.7102C78.5874 23.7614 78.4936 23.8082 78.3487 23.8509C78.2067 23.8906 78.0419 23.9261 77.8544 23.9574C77.6697 23.9858 77.4893 24.0114 77.3132 24.0341C77.1399 24.054 76.9993 24.071 76.8913 24.0852C76.63 24.1193 76.3857 24.1747 76.1584 24.2514C75.9339 24.3253 75.7521 24.4375 75.6129 24.5881C75.4766 24.7358 75.4084 24.9375 75.4084 25.1932C75.4084 25.5426 75.5376 25.8068 75.7962 25.9858C76.0575 26.1619 76.3885 26.25 76.7891 26.25ZM81.4712 27V20.4545H82.4428V21.4432H82.511C82.6303 21.1193 82.8462 20.8565 83.1587 20.6548C83.4712 20.4531 83.8235 20.3523 84.2156 20.3523C84.2894 20.3523 84.3817 20.3537 84.4925 20.3565C84.6033 20.3594 84.6871 20.3636 84.744 20.3693V21.392C84.7099 21.3835 84.6317 21.3707 84.5096 21.3537C84.3903 21.3338 84.2638 21.3239 84.1303 21.3239C83.8121 21.3239 83.5281 21.3906 83.2781 21.5241C83.0309 21.6548 82.8349 21.8366 82.69 22.0696C82.5479 22.2997 82.4769 22.5625 82.4769 22.858V27H81.4712ZM88.2085 27.1364C87.663 27.1364 87.1815 26.9986 86.7638 26.723C86.3462 26.4446 86.0195 26.0526 85.7837 25.5469C85.5479 25.0384 85.43 24.4375 85.43 23.7443C85.43 23.0568 85.5479 22.4602 85.7837 21.9545C86.0195 21.4489 86.3477 21.0582 86.7681 20.7827C87.1886 20.5071 87.6744 20.3693 88.2255 20.3693C88.6516 20.3693 88.9883 20.4403 89.2354 20.5824C89.4854 20.7216 89.6758 20.8807 89.8065 21.0597C89.94 21.2358 90.0437 21.3807 90.1175 21.4943H90.2028V18.2727H91.2085V27H90.2369V25.9943H90.1175C90.0437 26.1136 89.9386 26.2642 89.8022 26.446C89.6658 26.625 89.4712 26.7855 89.2184 26.9276C88.9656 27.0668 88.6289 27.1364 88.2085 27.1364ZM88.3448 26.233C88.7482 26.233 89.0891 26.1278 89.3675 25.9176C89.646 25.7045 89.8576 25.4105 90.0025 25.0355C90.1474 24.6577 90.2198 24.2216 90.2198 23.7273C90.2198 23.2386 90.1488 22.8111 90.0067 22.4446C89.8647 22.0753 89.6545 21.7884 89.3761 21.5838C89.0977 21.3764 88.7539 21.2727 88.3448 21.2727C87.9187 21.2727 87.5636 21.3821 87.2795 21.6009C86.9982 21.8168 86.7866 22.1108 86.6445 22.483C86.5053 22.8523 86.4357 23.267 86.4357 23.7273C86.4357 24.1932 86.5067 24.6165 86.6488 24.9972C86.7937 25.375 87.0067 25.6761 87.288 25.9006C87.5721 26.1222 87.9244 26.233 88.3448 26.233ZM112.554 18.2727H113.61V24.0511C113.61 24.6477 113.47 25.1804 113.189 25.6491C112.91 26.1151 112.517 26.483 112.008 26.7528C111.5 27.0199 110.903 27.1534 110.218 27.1534C109.534 27.1534 108.937 27.0199 108.429 26.7528C107.92 26.483 107.525 26.1151 107.244 25.6491C106.966 25.1804 106.826 24.6477 106.826 24.0511V18.2727H107.883V23.9659C107.883 24.392 107.977 24.7713 108.164 25.1037C108.352 25.4332 108.619 25.6932 108.966 25.8835C109.315 26.071 109.733 26.1648 110.218 26.1648C110.704 26.1648 111.122 26.071 111.471 25.8835C111.821 25.6932 112.088 25.4332 112.272 25.1037C112.46 24.7713 112.554 24.392 112.554 23.9659V18.2727ZM116.232 18.2727L118.482 21.9034H118.55L120.8 18.2727H122.045L119.3 22.6364L122.045 27H120.8L118.55 23.4375H118.482L116.232 27H114.988L117.8 22.6364L114.988 18.2727H116.232ZM126.369 17.8636L123.556 28.3125H122.636L125.449 17.8636H126.369ZM133.425 18.2727H134.482V24.0511C134.482 24.6477 134.341 25.1804 134.06 25.6491C133.781 26.1151 133.388 26.483 132.879 26.7528C132.371 27.0199 131.774 27.1534 131.089 27.1534C130.405 27.1534 129.808 27.0199 129.3 26.7528C128.791 26.483 128.396 26.1151 128.115 25.6491C127.837 25.1804 127.697 24.6477 127.697 24.0511V18.2727H128.754V23.9659C128.754 24.392 128.848 24.7713 129.036 25.1037C129.223 25.4332 129.49 25.6932 129.837 25.8835C130.186 26.071 130.604 26.1648 131.089 26.1648C131.575 26.1648 131.993 26.071 132.342 25.8835C132.692 25.6932 132.959 25.4332 133.143 25.1037C133.331 24.7713 133.425 24.392 133.425 23.9659V18.2727ZM137.649 18.2727V27H136.592V18.2727H137.649Z" fill="black"/>
</svg>
